<?xml version="1.0" encoding="UTF-8" standalone="no"?>
<svg
        xmlns="http://www.w3.org/2000/svg"
        viewBox="0 0 1501.3333 353.9585"
        height="353.9585"
        width="1501.3333"
        xml:space="preserve"
        id="svg3713"
        version="1.1">
    <defs
            id="defs3717"><clipPath
       id="clipPath3729"><path
         id="path3727"
         d="M 0,768 H 1366 V 0 H 0 Z" /></clipPath></defs>
    <g
            transform="matrix(1.3333333,0,0,-1.3333333,-185.33333,873.1582)"
            id="g3721"><path
       d="m 139,538.5 h 1126 v 9 H 139 Z"
       style="fill:none;fill-opacity:1;fill-rule:nonzero;stroke:none"
       id="path4995" />
        <path
                d="m 139,599.5 h 1126 v 9 H 139 Z"
                style="fill:none;fill-opacity:1;fill-rule:nonzero;stroke:none"
                id="path4949"/>
        <g
                id="g3725"
                clip-path="url(#clipPath3729)"><g
         id="g5143"><g
           transform="translate(169.5757,390.1001)"
           id="g3731"><path
             id="path3733"
             style="fill:#000000;fill-opacity:1;fill-rule:nonzero;stroke:none"
             d="m 0,0 c -4.354,0.465 -8.037,1.065 -11.05,1.8 v 11.7 c 5.96,-0.6 13.494,-0.9 22.603,-0.9 4.084,0 7.165,0.55 9.242,1.65 2.075,1.1 3.114,3.05 3.114,5.85 v 2.7 c 0,2.2 -0.653,3.883 -1.959,5.05 -1.305,1.166 -3.164,1.75 -5.575,1.75 h -6.329 c -7.368,0 -12.876,1.6 -16.525,4.8 -3.652,3.2 -5.476,8.433 -5.476,15.7 v 3.6 c 0,13.865 8.002,20.8 24.01,20.8 3.75,0 7.635,-0.25 11.653,-0.75 4.019,-0.5 7.635,-1.084 10.85,-1.75 V 60.3 C 25.381,60.9 18.45,61.2 13.763,61.2 9.945,61.2 7.065,60.616 5.124,59.45 3.18,58.283 2.21,56.133 2.21,53 v -2 c 0,-2.535 0.719,-4.384 2.16,-5.55 1.44,-1.167 3.632,-1.75 6.58,-1.75 h 7.334 c 6.429,0 11.334,-1.75 14.717,-5.25 3.381,-3.5 5.073,-8.084 5.073,-13.75 v -4.2 c 0,-5.6 -1.039,-9.95 -3.115,-13.05 C 32.883,4.35 29.97,2.215 26.22,1.05 22.468,-0.116 17.814,-0.7 12.256,-0.7 8.438,-0.7 4.353,-0.466 0,0" /></g><g
                transform="translate(256.9233,404.5498)"
                id="g3735"><path
             id="path3737"
             style="fill:#000000;fill-opacity:1;fill-rule:nonzero;stroke:none"
             d="m 0,0 c 2.176,1.233 3.733,3.566 4.671,7 0.937,3.433 1.407,8.55 1.407,15.35 0,7.066 -0.47,12.316 -1.407,15.75 -0.938,3.433 -2.495,5.75 -4.671,6.95 -2.177,1.2 -5.375,1.8 -9.594,1.8 -4.153,0 -7.318,-0.6 -9.493,-1.8 -2.177,-1.2 -3.767,-3.534 -4.772,-7 -1.005,-3.467 -1.507,-8.7 -1.507,-15.7 0,-6.867 0.468,-12 1.407,-15.4 0.937,-3.4 2.494,-5.717 4.671,-6.95 2.176,-1.234 5.408,-1.85 9.694,-1.85 4.219,0 7.417,0.616 9.594,1.85 m -27.074,-12.25 c -4.354,1.933 -7.634,5.6 -9.844,11 -2.211,5.4 -3.316,13.266 -3.316,23.6 0,10.333 1.121,18.216 3.366,23.65 2.243,5.433 5.54,9.15 9.895,11.15 4.352,2 10.146,3 17.379,3 7.299,0 13.11,-1 17.43,-3 4.32,-2 7.584,-5.717 9.794,-11.15 2.211,-5.434 3.316,-13.317 3.316,-23.65 0,-10.334 -1.105,-18.2 -3.316,-23.6 -2.21,-5.4 -5.474,-9.067 -9.794,-11 -4.32,-1.934 -10.131,-2.9 -17.43,-2.9 -7.301,0 -13.127,0.966 -17.48,2.9" /></g><g
                transform="translate(288.8179,447.1001)"
                id="g3739"><path
             id="path3741"
             style="fill:#000000;fill-opacity:1;fill-rule:nonzero;stroke:none"
             d="m 0,0 c 0,6 1.658,10.315 4.973,12.95 3.315,2.633 7.316,3.95 12.005,3.95 13.326,0 24.043,-0.435 32.147,-1.3 V 3.2 H 21.097 c -2.01,0 -3.551,-0.55 -4.621,-1.65 -1.073,-1.1 -1.608,-2.517 -1.608,-4.25 v -12.7 l 29.435,-0.8 V -27.9 L 14.868,-28.7 V -57.1 H 0 Z" /></g><g
                transform="translate(362.9561,450.7002)"
                id="g3743"><path
             id="path3745"
             style="fill:#000000;fill-opacity:1;fill-rule:nonzero;stroke:none"
             d="M 0,0 H -20.393 V 13.3 H 35.361 V 0 H 14.868 V -60.7 H 0 Z" /></g><g
                transform="translate(401.6318,464)"
                id="g3747"><path
             id="path3749"
             style="fill:#000000;fill-opacity:1;fill-rule:nonzero;stroke:none"
             d="M 0,0 H 15.37 L 27.325,-52.2 41.289,0 H 54.951 L 68.814,-52.2 80.769,0 h 15.37 L 78.357,-74 H 63.188 L 48.12,-21.8 32.95,-74 H 17.781 Z" /></g><g
                transform="translate(539.3618,418.7998)"
                id="g3751"><path
             id="path3753"
             style="fill:#000000;fill-opacity:1;fill-rule:nonzero;stroke:none"
             d="M 0,0 -9.142,32.5 -18.284,0 Z M -18.384,45.2 H 0.401 l 23.307,-74 H 8.237 L 3.516,-13.3 H -21.8 l -4.621,-15.5 H -41.69 Z" /></g><g
                transform="translate(599.335,429.2998)"
                id="g3755"><path
             id="path3757"
             style="fill:#000000;fill-opacity:1;fill-rule:nonzero;stroke:none"
             d="M 0,0 C 2.879,0 5.089,0.816 6.63,2.45 8.17,4.083 8.941,6.933 8.941,11 8.941,14.933 8.17,17.65 6.63,19.15 5.089,20.65 2.879,21.4 0,21.4 H -13.26 V 0 Z m -28.128,34.7 h 30.74 c 6.563,0 11.737,-1.75 15.521,-5.25 3.783,-3.5 5.676,-9.65 5.676,-18.45 0,-6.2 -1.055,-10.8 -3.164,-13.8 -2.11,-3 -4.973,-5.267 -8.59,-6.8 L 25.918,-39.3 H 10.75 l -11.955,27.4 c -3.215,0 -7.233,0.066 -12.055,0.2 v -27.6 h -14.868 z" /></g><g
                transform="translate(639.6191,392.7002)"
                id="g3759"><path
             id="path3761"
             style="fill:#000000;fill-opacity:1;fill-rule:nonzero;stroke:none"
             d="m 0,0 c -3.616,2.133 -5.425,6.5 -5.425,13.1 v 41.3 c 0,6 1.658,10.315 4.973,12.95 3.315,2.632 7.316,3.95 12.005,3.95 C 21.8,71.3 32.514,70.865 43.7,70 V 57.6 H 15.973 c -4.354,0 -6.53,-2.035 -6.53,-6.1 V 40.8 L 38.878,40 V 28.3 L 9.443,27.5 V 17.3 c 0,-4.4 2.076,-6.6 6.229,-6.6 H 43.7 V -1.7 C 34.792,-2.7 24.445,-3.2 12.658,-3.2 7.836,-3.2 3.617,-2.135 0,0" /></g><g
                transform="translate(730.2314,390.1001)"
                id="g3763"><path
             id="path3765"
             style="fill:#000000;fill-opacity:1;fill-rule:nonzero;stroke:none"
             d="m 0,0 c -4.354,0.465 -8.037,1.065 -11.051,1.8 v 11.7 c 5.96,-0.6 13.494,-0.9 22.604,-0.9 4.084,0 7.165,0.55 9.242,1.65 2.074,1.1 3.114,3.05 3.114,5.85 v 2.7 c 0,2.2 -0.653,3.883 -1.959,5.05 -1.306,1.166 -3.165,1.75 -5.576,1.75 h -6.329 c -7.367,0 -12.876,1.6 -16.525,4.8 -3.651,3.2 -5.475,8.433 -5.475,15.7 v 3.6 c 0,13.865 8.002,20.8 24.01,20.8 3.75,0 7.634,-0.25 11.653,-0.75 4.019,-0.5 7.635,-1.084 10.85,-1.75 V 60.3 C 25.381,60.9 18.449,61.2 13.763,61.2 9.945,61.2 7.064,60.616 5.123,59.45 3.18,58.283 2.21,56.133 2.21,53 v -2 c 0,-2.535 0.719,-4.384 2.159,-5.55 1.44,-1.167 3.633,-1.75 6.58,-1.75 h 7.334 c 6.429,0 11.334,-1.75 14.717,-5.25 3.381,-3.5 5.073,-8.084 5.073,-13.75 v -4.2 c 0,-5.6 -1.039,-9.95 -3.114,-13.05 C 32.883,4.35 29.969,2.215 26.22,1.05 22.468,-0.116 17.813,-0.7 12.256,-0.7 8.438,-0.7 4.353,-0.466 0,0" /></g><g
                transform="translate(817.5781,404.5498)"
                id="g3767"><path
             id="path3769"
             style="fill:#000000;fill-opacity:1;fill-rule:nonzero;stroke:none"
             d="m 0,0 c 2.176,1.233 3.733,3.566 4.672,7 0.937,3.433 1.406,8.55 1.406,15.35 0,7.066 -0.469,12.316 -1.406,15.75 -0.939,3.433 -2.496,5.75 -4.672,6.95 -2.177,1.2 -5.374,1.8 -9.594,1.8 -4.153,0 -7.317,-0.6 -9.493,-1.8 -2.177,-1.2 -3.767,-3.534 -4.771,-7 -1.005,-3.467 -1.507,-8.7 -1.507,-15.7 0,-6.867 0.468,-12 1.406,-15.4 0.938,-3.4 2.494,-5.717 4.671,-6.95 2.176,-1.234 5.408,-1.85 9.694,-1.85 4.22,0 7.417,0.616 9.594,1.85 m -27.073,-12.25 c -4.355,1.933 -7.635,5.6 -9.845,11 -2.21,5.4 -3.315,13.266 -3.315,23.6 0,10.333 1.121,18.216 3.365,23.65 2.243,5.433 5.541,9.15 9.895,11.15 4.353,2 10.147,3 17.379,3 7.3,0 13.111,-1 17.43,-3 4.32,-2 7.585,-5.717 9.795,-11.15 2.21,-5.434 3.315,-13.317 3.315,-23.65 0,-10.334 -1.105,-18.2 -3.315,-23.6 -2.21,-5.4 -5.475,-9.067 -9.795,-11 -4.319,-1.934 -10.13,-2.9 -17.43,-2.9 -7.3,0 -13.127,0.966 -17.479,2.9" /></g><g
                transform="translate(853.793,394.1001)"
                id="g3771"><path
             id="path3773"
             style="fill:#000000;fill-opacity:1;fill-rule:nonzero;stroke:none"
             d="M 0,0 C -2.88,2.733 -4.319,7.2 -4.319,13.4 V 69.9 H 10.548 V 15.8 c 0,-4.335 2.211,-6.5 6.631,-6.5 H 40.686 V -4.1 H 13.261 C 7.299,-4.1 2.879,-2.734 0,0" /></g><g
                transform="translate(908.2402,394.75)"
                id="g3775"><path
             id="path3777"
             style="fill:#000000;fill-opacity:1;fill-rule:nonzero;stroke:none"
             d="m 0,0 c -5.022,3.5 -7.534,9.85 -7.534,19.05 v 50.2 H 7.334 v -50.1 c 0,-3.934 1.187,-6.767 3.566,-8.5 2.376,-1.734 5.91,-2.6 10.598,-2.6 4.688,0 8.203,0.866 10.549,2.6 2.343,1.733 3.516,4.566 3.516,8.5 v 50.1 H 50.531 V 19.05 C 50.531,9.85 48.002,3.5 42.946,0 37.889,-3.5 30.74,-5.25 21.498,-5.25 12.188,-5.25 5.023,-3.5 0,0" /></g><g
                transform="translate(986.1953,450.7002)"
                id="g3779"><path
             id="path3781"
             style="fill:#000000;fill-opacity:1;fill-rule:nonzero;stroke:none"
             d="M 0,0 H -20.393 V 13.3 H 35.362 V 0 H 14.868 V -60.7 H 0 Z" /></g><path
                id="path3783"
                style="fill:#000000;fill-opacity:1;fill-rule:nonzero;stroke:none"
                d="m 1029.593,464 h 14.867 v -74 h -14.867 z"/><g
                transform="translate(1095.6426,404.5498)"
                id="g3785"><path
             id="path3787"
             style="fill:#000000;fill-opacity:1;fill-rule:nonzero;stroke:none"
             d="m 0,0 c 2.176,1.233 3.733,3.566 4.672,7 0.937,3.433 1.406,8.55 1.406,15.35 0,7.066 -0.469,12.316 -1.406,15.75 -0.939,3.433 -2.496,5.75 -4.672,6.95 -2.177,1.2 -5.374,1.8 -9.594,1.8 -4.153,0 -7.317,-0.6 -9.493,-1.8 -2.177,-1.2 -3.767,-3.534 -4.771,-7 -1.005,-3.467 -1.507,-8.7 -1.507,-15.7 0,-6.867 0.468,-12 1.406,-15.4 0.938,-3.4 2.494,-5.717 4.671,-6.95 2.176,-1.234 5.408,-1.85 9.694,-1.85 4.22,0 7.417,0.616 9.594,1.85 m -27.073,-12.25 c -4.355,1.933 -7.635,5.6 -9.845,11 -2.21,5.4 -3.315,13.266 -3.315,23.6 0,10.333 1.121,18.216 3.365,23.65 2.243,5.433 5.541,9.15 9.895,11.15 4.353,2 10.147,3 17.379,3 7.3,0 13.111,-1 17.43,-3 4.32,-2 7.585,-5.717 9.795,-11.15 2.21,-5.434 3.315,-13.317 3.315,-23.65 0,-10.334 -1.105,-18.2 -3.315,-23.6 -2.21,-5.4 -5.475,-9.067 -9.795,-11 -4.319,-1.934 -10.13,-2.9 -17.43,-2.9 -7.3,0 -13.127,0.966 -17.479,2.9" /></g><g
                transform="translate(1128.04,464)"
                id="g3789"><path
             id="path3791"
             style="fill:#000000;fill-opacity:1;fill-rule:nonzero;stroke:none"
             d="M 0,0 H 11.955 L 43.097,-48.8 V 0 H 57.965 V -74 H 46.01 L 14.969,-25.2 V -74 H 0 Z" /></g><g
                transform="translate(1208.4072,390.1001)"
                id="g3793"><path
             id="path3795"
             style="fill:#000000;fill-opacity:1;fill-rule:nonzero;stroke:none"
             d="m 0,0 c -4.354,0.465 -8.037,1.065 -11.051,1.8 v 11.7 c 5.96,-0.6 13.494,-0.9 22.604,-0.9 4.084,0 7.165,0.55 9.242,1.65 2.074,1.1 3.114,3.05 3.114,5.85 v 2.7 c 0,2.2 -0.653,3.883 -1.959,5.05 -1.306,1.166 -3.165,1.75 -5.576,1.75 h -6.329 c -7.367,0 -12.876,1.6 -16.525,4.8 -3.651,3.2 -5.475,8.433 -5.475,15.7 v 3.6 c 0,13.865 8.002,20.8 24.01,20.8 3.75,0 7.634,-0.25 11.653,-0.75 4.019,-0.5 7.635,-1.084 10.85,-1.75 V 60.3 C 25.381,60.9 18.449,61.2 13.763,61.2 9.945,61.2 7.064,60.616 5.123,59.45 3.18,58.283 2.21,56.133 2.21,53 v -2 c 0,-2.535 0.719,-4.384 2.159,-5.55 1.44,-1.167 3.633,-1.75 6.58,-1.75 h 7.334 c 6.429,0 11.334,-1.75 14.717,-5.25 3.381,-3.5 5.073,-8.084 5.073,-13.75 v -4.2 c 0,-5.6 -1.039,-9.95 -3.114,-13.05 C 32.883,4.35 29.969,2.215 26.22,1.05 22.468,-0.116 17.813,-0.7 12.256,-0.7 8.438,-0.7 4.353,-0.466 0,0" /></g></g>
            <g
                    id="g5169"><path
           style="fill:#006d8d;fill-opacity:1;fill-rule:nonzero;stroke:none;stroke-width:0.99999994"
           d="m 265.21729,538.50001 c -0.74667,-2.97655 -3.23931,-5.14958 -7.48828,-6.51123 -5.155,-1.655 -13.20906,-2.48144 -24.16406,-2.48144 -27.707,0 -52.30186,0.64738 -73.77686,1.94238 V 498.2212 c 23.841,-4.17399 49.50452,-6.25635 76.99952,-6.25635 19.75899,0 35.92278,1.32724 48.48779,3.99024 12.565,2.66 22.28171,7.62367 29.15771,14.88867 6.32607,6.68508 9.7335,15.90866 10.23633,27.65625 z"
           id="path3799" />
                <path
                        style="fill:#006d8d;fill-opacity:1;fill-rule:nonzero;stroke:none;stroke-width:0.99999994"
                        d="m 407.21485,538.50001 v -45.2417 h 62.50343 v 45.2417 z"
                        id="path3803"/>
                <path
                        style="fill:#006d8d;fill-opacity:1;fill-rule:nonzero;stroke:none;stroke-width:0.99999994"
                        d="m 558.31203,538.50001 v -45.2417 h 62.50195 v 45.2417 z"
                        id="path3807"/>
                <path
                        style="fill:#006d8d;fill-opacity:1;fill-rule:nonzero;stroke:none;stroke-width:0.99999994"
                        d="m 650.71877,538.50001 27.44385,-45.24023 h 63.46875 l -30.25781,45.24023 z"
                        id="path3811"/>
                <path
                        style="fill:#006d8d;fill-opacity:1;fill-rule:nonzero;stroke:none;stroke-width:0.99999994"
                        d="m 764.50637,538.50001 v -45.24023 h 62.50193 v 45.24023 z"
                        id="path3815"/>
                <path
                        style="fill:#006d8d;fill-opacity:1;fill-rule:nonzero;stroke:none;stroke-width:0.99999994"
                        d="m 859.6465,538.50001 c 1.90447,-16.60482 10.29675,-28.23717 25.188,-34.88379 17.07502,-7.626 40.8618,-11.43603 71.3628,-11.43603 30.49598,0 54.2868,3.81003 71.3628,11.43603 14.8911,6.64726 23.284,18.27838 25.188,34.88379 H 987.958 c -1.45882,-1.7893 -3.50482,-3.31344 -6.1479,-4.56885 -5.91,-2.805 -14.44777,-4.20702 -25.6128,-4.20702 -11.17102,0 -19.70783,1.40202 -25.6128,4.20702 -2.64578,1.25535 -4.6923,2.7795 -6.1509,4.56885 z"
                        id="path3819"/>
                <path
                        style="fill:#006d8d;fill-opacity:1;fill-rule:nonzero;stroke:none;stroke-width:0.99999994"
                        d="m 1188.8833,538.50001 c -0.7466,-2.97687 -3.2393,-5.14958 -7.4882,-6.51123 -5.1551,-1.655 -13.2091,-2.48144 -24.1641,-2.48144 -27.707,0 -52.3034,0.64838 -73.7783,1.94238 V 498.2212 c 23.841,-4.17399 49.505,-6.25634 77.001,-6.25635 19.7589,0 35.9227,1.32771 48.4878,3.99171 12.5649,2.65899 22.2802,7.6222 29.1562,14.8872 6.326,6.686 9.7335,15.90946 10.2363,27.65625 z"
                        id="path3823"/>
                <path
                        style="fill:#000000;fill-opacity:1;fill-rule:nonzero;stroke:none;stroke-width:0.99999994"
                        d="m 155.62207,599.5005 c 0.24705,-16.30984 6.51184,-28.17765 18.82471,-35.57813 12.565,-7.55199 31.62304,-11.32763 57.18604,-11.32763 h 17.07568 c 4.722,0 8.6989,-0.82945 11.9209,-2.48144 1.43236,-0.73598 2.54423,-1.60758 3.33984,-2.61329 h 60.77344 v 1.21143 c 0,12.94601 -5.85408,23.44446 -17.55908,31.50147 -11.70899,8.05501 -28.40812,12.0835 -50.09912,12.0835 H 235.8208 c -11.29788,0 -18.02067,2.40196 -20.17675,7.20409 z"
                        id="path3827"/>
                <path
                        style="fill:#000000;fill-opacity:1;fill-rule:nonzero;stroke:none;stroke-width:0.99999994"
                        d="m 370.57618,599.5005 31.37989,-52.00049 h 73.02099 l 31.37989,52.00049 h -57.35157 l -9.25049,-17.99267 -9.25048,17.99267 z"
                        id="path3831"/>
                <path
                        style="fill:#000000;fill-opacity:1;fill-rule:nonzero;stroke:none;stroke-width:0.99999994"
                        d="m 558.31203,599.5005 v -52.00049 h 62.50195 v 0.99609 h 23.8418 l 0.60351,-0.99609 h 60.09522 l -5.28369,7.8999 c 10.311,4.02501 18.30846,9.3114 24.00147,15.8584 5.6685,6.52043 8.51519,15.93472 8.53564,28.24219 h -62.50049 c 8e-5,-0.0285 10e-4,-0.0549 10e-4,-0.0835 0,-6.187 -1.72325,-10.68182 -5.15625,-13.48682 -3.43901,-2.805 -8.69863,-4.20557 -15.78663,-4.20557 h -28.35205 v 17.77588 z"
                        id="path3835"/>
                <path
                        style="fill:#000000;fill-opacity:1;fill-rule:nonzero;stroke:none;stroke-width:0.99999994"
                        d="M 764.50637,599.5005 V 547.50001 H 827.0083 V 599.5005 Z"
                        id="path3839"/>
                <path
                        style="fill:#000000;fill-opacity:1;fill-rule:nonzero;stroke:none;stroke-width:0.99999994"
                        d="m 990.66948,599.5005 v -52.00049 h 62.50342 v 52.00049 z"
                        id="path3843"/>
                <path
                        style="fill:#000000;fill-opacity:1;fill-rule:nonzero;stroke:none;stroke-width:0.99999994"
                        d="m 1079.2881,599.5005 c 0.2471,-16.30984 6.5118,-28.17766 18.8247,-35.57813 12.565,-7.55199 31.6221,-11.32763 57.186,-11.32763 h 17.0757 c 4.7211,0 8.6975,-0.82945 11.9195,-2.48144 1.4328,-0.73598 2.5443,-1.60758 3.3398,-2.61329 h 60.7749 v 1.21143 c 0,12.946 -5.8555,23.44446 -17.5605,31.50147 -11.709,8.055 -28.4056,12.0835 -50.0977,12.0835 h -21.2637 c -11.2978,0 -18.0209,2.40196 -20.1767,7.20409 z"
                        id="path3851"/>
                <path
                        id="path3855"
                        d="m 238.07667,654.86867 c -27.063,0 -47.57663,-3.9577 -61.53663,-11.8667 -13.69937,-7.76304 -20.66879,-19.26678 -20.92822,-34.50147 h 59.71289 c 0.93708,2.96741 3.36279,5.0822 7.28613,6.34278 5.15501,1.652 12.88827,2.48144 23.19727,2.48144 20.62,0 42.95667,-0.64738 67.01367,-1.94238 v 33.22998 c -26.20699,4.17 -51.12011,6.25635 -74.74511,6.25635 z"
                        style="fill:#006d8d;fill-opacity:1;fill-rule:nonzero;stroke:none;stroke-width:0.99999994"/>
                <path
                        id="path3859"
                        d="m 337.94678,653.57375 27.19923,-45.07325 h 60.73096 l -23.17237,45.07325 z"
                        style="fill:#006d8d;fill-opacity:1;fill-rule:nonzero;stroke:none;stroke-width:0.99999994"/>
                <path
                        style="fill:#006d8d;fill-opacity:1;fill-rule:nonzero;stroke:none;stroke-width:0.99999994"
                        d="M 476.80519,653.57375 453.63282,608.5005 h 58.15284 l 27.20068,45.07325 z"
                        id="path3863"/>
                <path
                        style="fill:#006d8d;fill-opacity:1;fill-rule:nonzero;stroke:none;stroke-width:0.99999994"
                        d="M 558.31203,653.57375 V 608.5005 h 62.50195 v 7.53077 h 28.35205 c 7.29901,0 12.61576,-1.22397 15.94776,-3.66797 1.33385,-0.98122 2.38956,-2.27594 3.18457,-3.8628 h 63.81299 c -1.6812,15.06218 -7.83718,26.0354 -18.50977,32.88281 -12.676,8.12501 -30.39518,12.19044 -53.15918,12.19044 z"
                        id="path3867"/>
                <path
                        style="fill:#006d8d;fill-opacity:1;fill-rule:nonzero;stroke:none;stroke-width:0.99999994"
                        d="M 764.50637,653.57375 V 608.5005 h 62.50193 v 45.07325 z"
                        id="path3869"/>
                <path
                        style="fill:#006d8d;fill-opacity:1;fill-rule:nonzero;stroke:none;stroke-width:0.99999994"
                        d="M 990.66948,653.57375 V 608.5005 h 62.50342 v 45.07325 z"
                        id="path3871"/>
                <path
                        style="fill:#000000;fill-opacity:1;fill-rule:nonzero;stroke:none;stroke-width:0.99999994"
                        d="m 859.2217,599.5005 v -52.00049 h 62.50342 v 52.00049 z"
                        id="path3847"/>
                <path
                        style="fill:#006d8d;fill-opacity:1;fill-rule:nonzero;stroke:none;stroke-width:0.99999994"
                        d="M 859.2217,653.57375 V 608.5005 h 62.50342 v 45.07325 z"
                        id="path3873"/>
                <path
                        style="fill:#006d8d;fill-opacity:1;fill-rule:nonzero;stroke:none;stroke-width:0.99999994"
                        d="m 1161.7413,654.86867 c -27.063,0 -47.5762,-3.9577 -61.5352,-11.8667 -13.7003,-7.76305 -20.6703,-19.26677 -20.9297,-34.50147 h 59.7144 c 0.9371,2.96737 3.3628,5.0822 7.2861,6.34278 5.156,1.652 12.8877,2.48144 23.1987,2.48144 20.619,0 42.9537,-0.64738 67.0107,-1.94238 v 33.22998 c -26.2069,4.17 -51.1211,6.25635 -74.745,6.25635 z"
                        id="path3877"/></g></g></g></svg>
